# xmcd
#
# Track frame offsets: 
#        150
#        15047
#        33697
#        45722
#        59290
#        78032
#        100075
#        112897
#        126932
#        140735
#        153630
#        165892
#        179700
#        191817
#        209852
#        227525
#        241367
#        265952
#        284775
#        300170
#
# Disc length: 4255 seconds
#
# Revision: 3
# Processed by: cddbd v1.5.2PL0 Copyright (c) Steve Scherf et al.
# Submitted via: ExactAudioCopyFreeDBPlugin 1.0
#
DISCID=16109d14
DTITLE=The Supremes - The Supremes [box set]
DYEAR=2000
DGENRE=Soul
TTITLE0=Up the Ladder to the Roof (original single mix)
TTITLE1=Bill, When Are You Coming Back (original single mix)
TTITLE2=Everybody's Got the Right to Love
TTITLE3=The Day Will Come Between Sunday and Monday
TTITLE4=Stoned Love
TTITLE5=River Deep, Mountain High (with Four Tops)
TTITLE6=You Gotta Have Love in Your Heart (with Four Tops)
TTITLE7=Touch (promo stereo single mix)
TTITLE8=Nathan Jones
TTITLE9=Floy Joy (unedited version)
TTITLE10=Automatically Sunshine
TTITLE11=You Wonderful, Sweet Sweet Love
TTITLE12=I Guess I'll Miss the Man
TTITLE13=5:30 Plane
TTITLE14=Bad Weather
TTITLE15=He's My Man
TTITLE16=High Energy
TTITLE17=I'm Gonna Let My Heart Do the Walking (extended version)
TTITLE18=You're My Driving Wheel (promo stereo single mix)
TTITLE19=You Are the Heart of Me
EXTD=
EXTT0=
EXTT1=
EXTT2=
EXTT3=
EXTT4=
EXTT5=
EXTT6=
EXTT7=
EXTT8=
EXTT9=
EXTT10=
EXTT11=
EXTT12=
EXTT13=
EXTT14=
EXTT15=
EXTT16=
EXTT17=
EXTT18=
EXTT19=
PLAYORDER=
